<svg width="24" height="24" viewBox="0 0 24 24" fill="none" xmlns="http://www.w3.org/2000/svg">
<path d="M3.94803 13.318C3.8585 13.5624 3.6772 13.7623 3.44264 13.8752C3.20809 13.988 2.93877 14.005 2.69191 13.9224C2.44505 13.8399 2.2401 13.6643 2.12061 13.4331C2.00113 13.2018 1.97652 12.9331 2.05203 12.684C2.08865 12.5743 2.13003 12.4642 2.17603 12.358C2.25603 12.168 2.37403 11.906 2.53603 11.596C2.86603 10.976 3.38003 10.15 4.13803 9.324C5.66803 7.654 8.17403 6 12 6C15.826 6 18.332 7.654 19.862 9.324C20.6781 10.2204 21.3403 11.2456 21.822 12.358L21.914 12.584C21.92 12.6 21.94 12.704 21.96 12.804L22 13C22 13 22.168 13.666 21.316 13.948C21.0651 14.0318 20.7912 14.0128 20.5543 13.8951C20.3174 13.7773 20.1368 13.5706 20.052 13.32V13.314L20.04 13.282L19.978 13.126C19.5851 12.2275 19.0481 11.3993 18.388 10.674C17.168 9.348 15.174 8 12 8C8.82603 8 6.83203 9.346 5.61203 10.676C4.95216 11.4006 4.41509 12.2282 4.02203 13.126L3.96203 13.282L3.94803 13.318ZM12 10C10.9392 10 9.92174 10.4214 9.1716 11.1716C8.42145 11.9217 8.00003 12.9391 8.00003 14C8.00003 15.0609 8.42145 16.0783 9.1716 16.8284C9.92174 17.5786 10.9392 18 12 18C13.0609 18 14.0783 17.5786 14.8285 16.8284C15.5786 16.0783 16 15.0609 16 14C16 12.9391 15.5786 11.9217 14.8285 11.1716C14.0783 10.4214 13.0609 10 12 10ZM10 14C10 13.4696 10.2107 12.9609 10.5858 12.5858C10.9609 12.2107 11.4696 12 12 12C12.5305 12 13.0392 12.2107 13.4142 12.5858C13.7893 12.9609 14 13.4696 14 14C14 14.5304 13.7893 15.0391 13.4142 15.4142C13.0392 15.7893 12.5305 16 12 16C11.4696 16 10.9609 15.7893 10.5858 15.4142C10.2107 15.0391 10 14.5304 10 14Z" fill="#FFF9F6"/>
</svg>
