<svg width="24" height="24" viewBox="0 0 24 24" fill="none" xmlns="http://www.w3.org/2000/svg">
<path d="M12.5 14.5228L5.42015 21.6027C5.15526 21.8676 4.81812 22 4.40875 22C3.99937 22 3.66223 21.8676 3.39734 21.6027C3.13245 21.3378 3 21.0006 3 20.5913C3 20.1819 3.13245 19.8447 3.39734 19.5798L10.4772 12.5L3.39734 5.42015C3.13245 5.15526 3 4.81812 3 4.40875C3 3.99937 3.13245 3.66223 3.39734 3.39734C3.66223 3.13245 3.99937 3 4.40875 3C4.81812 3 5.15526 3.13245 5.42015 3.39734L12.5 10.4772L19.5798 3.39734C19.8447 3.13245 20.1819 3 20.5913 3C21.0006 3 21.3378 3.13245 21.6027 3.39734C21.8676 3.66223 22 3.99937 22 4.40875C22 4.81812 21.8676 5.15526 21.6027 5.42015L14.5228 12.5L21.6027 19.5798C21.8676 19.8447 22 20.1819 22 20.5913C22 21.0006 21.8676 21.3378 21.6027 21.6027C21.3378 21.8676 21.0006 22 20.5913 22C20.1819 22 19.8447 21.8676 19.5798 21.6027L12.5 14.5228Z" fill="#FFF9F6"/>
</svg>
