<svg width="24" height="24" viewBox="0 0 24 24" fill="none" xmlns="http://www.w3.org/2000/svg">
    <path
        d="M20 5V9C20 9.28333 19.904 9.521 19.712 9.713C19.52 9.905 19.2827 10.0007 19 10C18.7173 9.99933 18.48 9.90333 18.288 9.712C18.096 9.52067 18 9.28333 18 9V7.425L14.025 11.375C14.3417 11.8417 14.5833 12.3377 14.75 12.863C14.9167 13.3883 15 13.934 15 14.5C15 16.0333 14.4667 17.3333 13.4 18.4C12.3333 19.4667 11.0333 20 9.5 20C7.96667 20 6.66667 19.4667 5.6 18.4C4.53333 17.3333 4 16.0333 4 14.5C4 12.9667 4.53333 11.6667 5.6 10.6C6.66667 9.53333 7.96667 9 9.5 9C10.05 9 10.5917 9.079 11.125 9.237C11.6583 9.395 12.15 9.641 12.6 9.975L16.575 6H15C14.7167 6 14.4793 5.904 14.288 5.712C14.0967 5.52 14.0007 5.28267 14 5C13.9993 4.71733 14.0953 4.48 14.288 4.288C14.4807 4.096 14.718 4 15 4H19C19.2833 4 19.521 4.096 19.713 4.288C19.905 4.48 20.0007 4.71733 20 5ZM9.5 11C8.53333 11 7.70833 11.3417 7.025 12.025C6.34167 12.7083 6 13.5333 6 14.5C6 15.4667 6.34167 16.2917 7.025 16.975C7.70833 17.6583 8.53333 18 9.5 18C10.4667 18 11.2917 17.6583 11.975 16.975C12.6583 16.2917 13 15.4667 13 14.5C13 13.5333 12.6583 12.7083 11.975 12.025C11.2917 11.3417 10.4667 11 9.5 11Z"
        fill="#FA7E25" />
</svg>