<svg width="22" height="22" viewBox="0 0 22 22" fill="none" xmlns="http://www.w3.org/2000/svg">
<path d="M10.998 1C7.98997 1 6.03997 3.019 3.73397 3.755C2.79597 4.055 2.32697 4.204 2.13697 4.415C1.94697 4.625 1.89197 4.934 1.78097 5.55C0.59097 12.146 3.19097 18.244 9.39097 20.618C10.056 20.873 10.389 21 11.001 21C11.613 21 11.947 20.872 12.613 20.617C18.812 18.244 21.409 12.146 20.219 5.55C20.108 4.934 20.052 4.625 19.862 4.414C19.672 4.203 19.204 4.054 18.266 3.755C15.959 3.019 14.006 1 10.998 1Z" stroke="#FA7E25" stroke-opacity="0.8" stroke-width="1.5" stroke-linecap="round" stroke-linejoin="round"/>
<path d="M9.25014 8.959C9.25014 8.899 9.25814 8.553 9.26014 8.119C9.26014 7.721 9.22614 7.339 9.41614 6.989C10.1261 5.575 12.1661 5.719 12.6701 7.159C12.7571 7.396 12.7631 7.771 12.7601 8.119C12.7571 8.562 12.7661 8.959 12.7661 8.959M9.33714 9.38C8.25714 9.38 7.71714 10.16 7.59714 10.64C7.47714 11.12 7.47714 12.86 7.54914 13.58C7.78914 14.48 8.38914 14.852 8.97714 14.972C9.51714 15.02 11.7971 15.002 12.4571 15.002C13.4171 15.02 14.1371 14.66 14.4371 13.58C14.4971 13.22 14.5571 11.24 14.4071 10.64C14.0891 9.68 13.2971 9.38 12.6971 9.38H9.33714Z" stroke="#FA7E25" stroke-opacity="0.8" stroke-width="1.5" stroke-linecap="round" stroke-linejoin="round"/>
</svg>
