<svg width="61" height="60" viewBox="0 0 61 60" fill="none" xmlns="http://www.w3.org/2000/svg">
<path d="M7.44386 28.588L7.44291 28.5908C6.26148 32.0839 5.66699 35.4596 5.66699 38.7155V47.8235C5.66699 49.2043 6.78628 50.3235 8.16699 50.3235H19.4359C20.8166 50.3235 21.9359 49.2042 21.9359 47.8235L21.9359 38.6066L21.9358 38.6024C21.901 34.4485 22.5633 30.6659 23.915 27.2481C25.0765 24.3554 26.4667 21.5612 28.0858 18.8656C28.7808 17.7084 28.4767 16.1861 27.3362 15.4261L21.3096 11.4102C20.3944 10.8003 19.1649 10.8489 18.3317 11.6086C16.1607 13.588 14.1767 15.9254 12.3783 18.6177L12.3776 18.6187C10.3043 21.7394 8.65949 25.0628 7.44386 28.588ZM34.3234 28.588L34.3225 28.5908C33.141 32.0839 32.5466 35.4596 32.5466 38.7155V47.8235C32.5466 49.2043 33.6659 50.3235 35.0466 50.3235H46.3154C47.6961 50.3235 48.8154 49.2042 48.8154 47.8235L48.8154 38.6066L48.8154 38.6024C48.7805 34.4487 49.4428 30.6662 50.7944 27.2486C51.956 24.3556 53.3462 21.5614 54.9654 18.8656C55.6603 17.7084 55.3563 16.1861 54.2158 15.4261L48.1891 11.4102C47.2739 10.8003 46.0445 10.8489 45.2112 11.6086C43.0403 13.588 41.0563 15.9254 39.2579 18.6177L39.2572 18.6187C37.1839 21.7394 35.5391 25.0628 34.3234 28.588Z" fill="url(#paint0_linear_159_14818)" stroke="#FA7E25"/>
<defs>
<linearGradient id="paint0_linear_159_14818" x1="30.8729" y1="11" x2="30.8729" y2="49.8235" gradientUnits="userSpaceOnUse">
<stop stop-color="#FA7E25"/>
<stop offset="1" stop-color="#191919"/>
</linearGradient>
</defs>
</svg>
