<svg width="27" height="32" viewBox="0 0 27 32" fill="none" xmlns="http://www.w3.org/2000/svg">
<path d="M24.08 13.1669C23.2234 11.3412 22.338 9.45379 21.9 7.34166C21.8664 6.97183 21.4649 2.92859 19.8202 0.949455C19.6113 0.698513 19.1463 0.672197 18.22 0.619331C17.2242 0.56247 15.8605 0.484931 14.3631 0.0899577C13.6716 -0.0926114 13.0903 0.00302205 12.6347 0.374031C11.8535 1.01006 11.5158 2.41584 11.6314 4.55143L11.6366 4.64424C11.6392 4.67714 11.6422 4.70956 11.6469 4.73799C11.728 5.25562 11.9411 5.74317 12.2632 6.14798L12.2661 6.15151C12.428 6.35428 12.6681 6.47998 12.9272 6.49291C13.4075 6.51711 14.1564 6.51053 14.8941 6.32632C15.275 6.23116 15.592 5.95414 15.7423 5.58551C15.8866 5.23165 15.8152 4.8705 15.6643 4.53263C15.5788 4.34067 15.4902 4.26524 15.4251 4.28663C14.7121 4.5223 14.2327 4.53122 14.1958 4.52746C14.0261 4.52253 13.8927 4.38108 13.8976 4.21121C13.9023 4.04156 14.0454 3.90153 14.2139 3.91304C14.212 3.9128 14.4817 3.91069 15.0847 3.71144C15.3319 3.6292 15.8041 3.58549 16.1881 4.21074C16.4855 4.69476 16.5307 5.28051 16.3114 5.81766C16.0873 6.367 15.6134 6.78007 15.0431 6.92269C14.427 7.07659 13.8137 7.11888 13.3253 7.11888C13.2837 7.11888 13.2433 7.11864 13.2038 7.11794C12.8542 7.11418 12.6251 7.48237 12.7825 7.79439L12.9667 8.15952C13.4216 9.0613 14.0459 9.57751 15.0544 9.52374C17.5374 9.39122 17.5779 9.55734 17.7666 10.5844C18.3795 13.9239 18.1777 16.7023 17.8815 18.2434C17.6822 19.2793 17.4935 20.2685 17.6007 21.581C14.3208 18.92 10.5318 19.9854 9.04725 21.0885C5.19106 17.9294 1.14707 19.2483 0 19.726V30.6938C1.25492 31.5834 2.71827 31.809 4.07965 31.8715C6.7735 31.9955 8.79017 30.8966 9.05266 30.7662C10.4519 31.585 12.0203 32 13.7545 32C15.3342 31.9998 17.0503 31.6595 18.8955 30.9782C19.5398 30.7401 20.0314 30.4676 20.4265 30.2486C20.8951 29.989 21.2336 29.801 21.5696 29.8001C22.4301 29.7949 23.2548 29.5045 23.8916 28.9821C24.4473 28.5261 24.6787 28.1099 24.7174 27.4981C24.7419 27.1088 24.8328 26.7502 24.9879 26.4323C27.697 20.8723 25.9404 17.1294 24.0805 13.1667L24.08 13.1669ZM17.8689 28.7411C16.5266 29.3097 15.2497 29.4998 14.1435 29.4998C11.9898 29.4998 10.4816 28.7801 10.3876 28.7342C10.2354 28.6597 10.1724 28.4758 10.2467 28.3235C10.3209 28.1712 10.5054 28.1076 10.6574 28.1818C10.69 28.1976 13.9393 29.738 17.6288 28.1752C17.7851 28.1085 17.9655 28.1823 18.0316 28.3383C18.0981 28.4946 18.0252 28.6748 17.8687 28.741L17.8689 28.7411ZM24.4301 23.5399C24.3714 23.6311 24.2724 23.6809 24.1714 23.6809C24.1143 23.6809 24.0567 23.6652 24.0053 23.632C23.8627 23.5402 23.8211 23.3501 23.9129 23.2072C24.7024 21.9791 24.1453 19.2222 24.1397 19.1945C24.1054 19.0281 24.212 18.8658 24.3784 18.8312C24.5443 18.7962 24.7071 18.9036 24.7417 19.07C24.767 19.1933 25.3551 22.1008 24.4301 23.5399Z" fill="#FA7E25"/>
</svg>
