<svg width="34" height="32" viewBox="0 0 34 32" fill="none" xmlns="http://www.w3.org/2000/svg">
    <path
        d="M32.4038 0.518095C30.9808 -0.406731 29.06 -0.015394 28.0285 1.33646L27.6726 1.79898C27.6014 1.90568 27.4235 1.90568 27.3525 1.79898L26.89 1.22976C25.7161 -0.264295 23.4749 -0.442158 22.0876 0.945145C20.9491 2.04783 20.8782 3.79102 21.6963 5.10715H23.6883L24.6131 3.54189C24.7198 3.36397 24.9332 3.25727 25.1466 3.25727C25.36 3.25727 25.5379 3.36397 25.6801 3.54189L27.3875 6.42321L27.9922 5.42717C28.0989 5.24926 28.3123 5.14256 28.5257 5.14256H30.2331C30.5532 5.14256 30.8378 5.42717 30.8378 5.74726C30.8378 6.06736 30.5532 6.35197 30.2331 6.35197H28.8813L27.9565 7.91723C27.8498 8.09514 27.6364 8.20184 27.423 8.20184C27.2096 8.20184 27.0317 8.09514 26.8895 7.91723L25.1821 5.03591L24.5774 6.03194C24.4707 6.20986 24.2573 6.31655 24.0439 6.31655H22.6211L26.5697 11.2256C27.0677 11.8304 27.9924 11.8304 28.4905 11.2256L33.2216 5.28501C34.3603 3.79096 34.04 1.58533 32.4038 0.518082L32.4038 0.518095Z"
        fill="#CAFF33" />
    <path
        d="M8.28571 19.1583L5.68896 26.8064L9.17502 26.5931L11.3095 20.3323L10.0289 20.0832C9.31725 19.941 8.74802 19.6209 8.28577 19.1584L8.28571 19.1583Z"
        fill="#CAFF33" />
    <path
        d="M18.6272 4.08927C18.9932 5.59768 18.0669 7.11676 16.5588 7.48277C15.0504 7.84852 13.531 6.92224 13.1653 5.4141C12.7995 3.90569 13.7255 2.38661 15.2339 2.02059C16.7421 1.65484 18.2614 2.58113 18.6272 4.08927Z"
        fill="#CAFF33" />
    <path
        d="M5.65335 14.4983C6.32929 14.8184 7.11189 14.5695 7.43198 13.8936L8.78381 11.2256L10.7046 10.5855L9.1039 16.3482C8.9972 16.775 9.03268 17.2375 9.28181 17.6288C9.53094 18.0201 9.88651 18.269 10.3133 18.3759L15.2224 19.3717L13.5859 23.2848C13.2301 24.1029 13.6214 25.028 14.4397 25.3836C14.7598 25.5257 15.1157 25.5257 15.4358 25.4548C15.9338 25.3481 16.3251 24.9923 16.5384 24.4942L18.9218 18.767C19.0997 18.3403 19.064 17.8065 18.8506 17.4152C18.6372 16.9884 18.2104 16.7038 17.7479 16.5971L14.3328 15.8857L15.6846 12.2572L17.3211 14.3917C17.6412 14.8185 18.1749 14.9964 18.7084 14.8897C18.8151 14.8543 18.9218 14.8185 19.0643 14.7476L21.8744 13.1823C22.5146 12.8265 22.7637 12.0084 22.3724 11.3682C22.0166 10.728 21.1985 10.4788 20.5582 10.8701L18.7796 11.8662L17.3211 9.98083C16.8943 9.41161 16.2896 8.98479 15.6491 8.77142L13.0524 7.8466C12.3053 7.56198 11.4517 7.56198 10.669 7.81111L7.43186 8.87836C7.07603 8.98506 6.82716 9.23418 6.64926 9.5543L5.04855 12.7203C4.72846 13.3599 4.97734 14.1783 5.65326 14.4984L5.65335 14.4983Z"
        fill="#CAFF33" />
    <path
        d="M30.9099 14.2848C30.8032 13.7868 30.3052 13.5022 29.8072 13.6089L22.8705 15.4942C22.408 15.6364 22.1234 16.0989 22.2303 16.5615L22.4795 17.7354C22.5862 18.1979 23.0487 18.518 23.5109 18.4113L25.4675 18.0555L26.2856 27.2332L1.59817 28.7985C0.744361 28.834 0.068671 29.5811 0.104117 30.435C0.1396 31.2886 0.85127 32 1.70482 32H28.1709C28.6334 32 29.0602 31.8221 29.3448 31.4665C29.6649 31.1464 29.8073 30.6839 29.7716 30.2571L28.6331 17.5576L30.5897 17.2018C31.0877 17.1306 31.4078 16.6326 31.3011 16.1346L30.9099 14.2848Z"
        fill="#CAFF33" />
</svg>